<mxfile host="65bd71144e">
    <diagram id="Tm4o0kY6xMyGQ3lXSkHQ" name="ページ1">
        <mxGraphModel dx="1883" dy="1375" grid="1" gridSize="10" guides="1" tooltips="1" connect="1" arrows="1" fold="1" page="1" pageScale="1" pageWidth="1654" pageHeight="1169" math="0" shadow="0">
            <root>
                <mxCell id="0"/>
                <mxCell id="1" parent="0"/>
                <mxCell id="9" value="" style="swimlane;startSize=0;dashed=1;" vertex="1" parent="1">
                    <mxGeometry x="80" y="320" width="800" height="520" as="geometry"/>
                </mxCell>
                <mxCell id="24" value="" style="shape=doubleArrow;whiteSpace=wrap;html=1;fontSize=25;" vertex="1" parent="9">
                    <mxGeometry x="310" y="235" width="100" height="60" as="geometry"/>
                </mxCell>
                <mxCell id="29" value="Web&lt;br&gt;ブラウザ" style="text;html=1;align=center;verticalAlign=middle;resizable=0;points=[];autosize=1;strokeColor=none;fillColor=none;fontSize=25;" vertex="1" parent="9">
                    <mxGeometry x="120" y="230" width="120" height="70" as="geometry"/>
                </mxCell>
                <mxCell id="37" value="クライアントサイド&lt;br&gt;スクリプト" style="text;html=1;align=center;verticalAlign=middle;resizable=0;points=[];autosize=1;strokeColor=none;fillColor=none;fontSize=25;" vertex="1" parent="9">
                    <mxGeometry x="55" y="40" width="250" height="70" as="geometry"/>
                </mxCell>
                <mxCell id="10" value="" style="swimlane;startSize=0;dashed=1;" vertex="1" parent="1">
                    <mxGeometry x="960" y="320" width="240" height="520" as="geometry"/>
                </mxCell>
                <mxCell id="11" value="" style="swimlane;startSize=0;dashed=1;" vertex="1" parent="1">
                    <mxGeometry x="1280" y="320" width="280" height="520" as="geometry"/>
                </mxCell>
                <mxCell id="12" value="" style="swimlane;startSize=0;dashed=1;" vertex="1" parent="1">
                    <mxGeometry x="440" y="200" width="1160" height="760" as="geometry"/>
                </mxCell>
                <mxCell id="25" value="" style="shape=doubleArrow;whiteSpace=wrap;html=1;fontSize=25;" vertex="1" parent="12">
                    <mxGeometry x="390" y="355" width="180" height="60" as="geometry"/>
                </mxCell>
                <mxCell id="26" value="" style="shape=doubleArrow;whiteSpace=wrap;html=1;fontSize=25;" vertex="1" parent="12">
                    <mxGeometry x="710" y="355" width="180" height="60" as="geometry"/>
                </mxCell>
                <mxCell id="30" value="Web&lt;br&gt;サーバー" style="text;html=1;align=center;verticalAlign=middle;resizable=0;points=[];autosize=1;strokeColor=none;fillColor=none;fontSize=25;" vertex="1" parent="12">
                    <mxGeometry x="170" y="350" width="120" height="70" as="geometry"/>
                </mxCell>
                <mxCell id="31" value="AP&lt;br&gt;サーバー" style="text;html=1;align=center;verticalAlign=middle;resizable=0;points=[];autosize=1;strokeColor=none;fillColor=none;fontSize=25;" vertex="1" parent="12">
                    <mxGeometry x="580" y="350" width="120" height="70" as="geometry"/>
                </mxCell>
                <mxCell id="32" value="DB&lt;br&gt;サーバー" style="text;html=1;align=center;verticalAlign=middle;resizable=0;points=[];autosize=1;strokeColor=none;fillColor=none;fontSize=25;" vertex="1" parent="12">
                    <mxGeometry x="940" y="345" width="120" height="70" as="geometry"/>
                </mxCell>
                <mxCell id="33" value="プレゼンテーション層" style="text;html=1;align=center;verticalAlign=middle;resizable=0;points=[];autosize=1;strokeColor=none;fillColor=none;fontSize=25;" vertex="1" parent="12">
                    <mxGeometry x="-130" y="590" width="270" height="40" as="geometry"/>
                </mxCell>
                <mxCell id="34" value="アプリケーション層" style="text;html=1;align=center;verticalAlign=middle;resizable=0;points=[];autosize=1;strokeColor=none;fillColor=none;fontSize=25;" vertex="1" parent="12">
                    <mxGeometry x="510" y="590" width="250" height="40" as="geometry"/>
                </mxCell>
                <mxCell id="35" value="データ層" style="text;html=1;align=center;verticalAlign=middle;resizable=0;points=[];autosize=1;strokeColor=none;fillColor=none;fontSize=25;" vertex="1" parent="12">
                    <mxGeometry x="920" y="590" width="120" height="40" as="geometry"/>
                </mxCell>
                <mxCell id="36" value="サーバーサイド&lt;br&gt;スクリプト" style="text;html=1;align=center;verticalAlign=middle;resizable=0;points=[];autosize=1;strokeColor=none;fillColor=none;fontSize=25;" vertex="1" parent="12">
                    <mxGeometry x="540" y="160" width="200" height="70" as="geometry"/>
                </mxCell>
                <mxCell id="38" value="Webシステム" style="text;html=1;align=center;verticalAlign=middle;resizable=0;points=[];autosize=1;strokeColor=none;fillColor=none;fontSize=25;" vertex="1" parent="12">
                    <mxGeometry x="460" y="700" width="170" height="40" as="geometry"/>
                </mxCell>
                <mxCell id="28" value="Webアプリケーションの３層アーキテクチャ" style="text;html=1;align=center;verticalAlign=middle;resizable=0;points=[];autosize=1;strokeColor=none;fillColor=none;fontSize=25;" vertex="1" parent="1">
                    <mxGeometry x="100" y="80" width="520" height="40" as="geometry"/>
                </mxCell>
            </root>
        </mxGraphModel>
    </diagram>
</mxfile>